<svg xmlns="http://www.w3.org/2000/svg" version="1.1" xmlns:xlink="http://www.w3.org/1999/xlink" xmlns:svgjs="http://svgjs.dev/svgjs" width="1500" height="1500" viewBox="0 0 1500 1500"><rect width="1500" height="1500" fill="#ffffff"></rect><g transform="matrix(0.6666666666666666,0,0,0.6666666666666666,249.1326530612244,120.51012145748984)"><svg viewBox="0 0 196 247" data-background-color="#dfdad6" preserveAspectRatio="xMidYMid meet" height="1890" width="1500" xmlns="http://www.w3.org/2000/svg" xmlns:xlink="http://www.w3.org/1999/xlink"><g id="tight-bounds" transform="matrix(1,0,0,1,0.17000000000001592,-0.09999999999999432)"><svg viewBox="0 0 195.65958661540648 247.2" height="247.2" width="195.65958661540648"><g><svg></svg></g><g><svg viewBox="0 0 195.65958661540648 247.2" height="247.2" width="195.65958661540648"><g transform="matrix(1,0,0,1,0,47.215199999999996)"><svg viewBox="0 0 195.65958661540648 152.7696" height="152.7696" width="195.65958661540648"><g><svg viewBox="0 0 195.65958661540648 152.7696" height="152.7696" width="195.65958661540648"><g><svg viewBox="0 0 244.43135999999998 190.85025037927616" height="152.7696" width="195.65958661540648"><g transform="matrix(1,0,0,1,0,115.35341962832156)"><svg viewBox="0 0 244.43135999999998 75.4968307509546" height="75.4968307509546" width="244.43135999999998"><g id="textblocktransform"><svg viewBox="0 0 244.43135999999998 75.4968307509546" height="75.4968307509546" width="244.43135999999998" id="textblock"><g><svg viewBox="0 0 244.43135999999998 75.4968307509546" height="75.4968307509546" width="244.43135999999998"><g transform="matrix(1,0,0,1,0,0)"><svg width="244.43135999999998" viewBox="3.44 -35.55 115.08 35.55" height="75.4968307509546" data-palette-color="#e33e33"><path d="M22.27 0L26.54 0 26.54-35.55 22.27-35.55 22.27-20.26 7.69-20.26 7.69-35.55 3.44-35.55 3.44 0 7.69 0 7.69-16.43 22.27-16.43 22.27 0ZM38.96-16.43L53.81-16.43 53.81-20.26 38.96-20.26 38.96-31.69 56.05-31.69 56.05-35.55 34.45-35.55 34.45 0 56.27 0 56.27-3.83 38.96-3.83 38.96-16.43ZM61.74-35.55L72.97 0 76.9 0 88.11-35.55 83.3-35.55 75.43-9.06 74.9-7.28 74.38-9.01 66.57-35.55 61.74-35.55ZM99.36-9.2L111.22-9.2 114.03 0 118.52 0 107.24-35.55 103.46-35.55 91.98 0 96.5 0 99.36-9.2ZM110.03-13.13L100.58-13.13 105.34-28.56 110.03-13.13Z" opacity="1" transform="matrix(1,0,0,1,0,0)" fill="#000000" class="wordmark-text-0" data-fill-palette-color="primary" id="text-0"></path></svg></g></svg></g></svg></g></svg></g><g transform="matrix(1,0,0,1,70.04715265673059,0)"><svg viewBox="0 0 104.33705468653882 104.33662009781926" height="104.33662009781926" width="104.33705468653882"><g><svg xmlns="http://www.w3.org/2000/svg" xmlns:xlink="http://www.w3.org/1999/xlink" version="1.0" x="0" y="0" viewBox="4.667731951646829 4.685959745359883 90.30503348557724 90.30465734357294" enable-background="new 0 0 100 100" xml:space="preserve" height="104.33662009781926" width="104.33705468653882" class="icon-icon-0" data-fill-palette-color="accent" id="icon-0"><path d="M17.504 35.743c-1.334 8.611 0.522 17.134 5.093 23.382 3.514 4.801 8.413 7.905 13.796 8.739 5.677 0.88 11.253-0.429 15.703-3.685 1.248-0.912 2.36-1.946 3.326-3.076-2.222 0.978-4.814 1.267-7.626 0.831-11.717-1.816-19.673-13.464-17.735-25.964 0.934-6.03 4.384-11.497 9.713-15.397 6.768-4.952 15.953-6.97 25.201-5.537 7.474 1.158 17.67 5.964 25.56 15.213 0 0-22.835-39.421-56.115-20.356C23.689 16.04 18.653 28.323 17.504 35.743z" fill="#000000" data-fill-palette-color="accent"></path><path d="M82.544 65.256c1.659-8.555 0.125-17.141-4.207-23.557-3.331-4.931-8.109-8.217-13.457-9.253-5.639-1.094-11.261 0.004-15.83 3.091-1.282 0.863-2.431 1.854-3.44 2.947 2.257-0.894 4.859-1.084 7.652-0.543 11.64 2.257 19.151 14.196 16.744 26.616-1.161 5.989-4.815 11.324-10.288 15.019-6.949 4.692-16.205 6.364-25.393 4.582C26.902 82.719 16.894 77.532 9.358 67.992c0 0 21.331 40.255 55.307 22.457C75.621 84.712 81.115 72.628 82.544 65.256z" fill="#000000" data-fill-palette-color="accent"></path><path d="M35.726 82.88c8.611 1.334 17.133-0.522 23.381-5.094 4.801-3.514 7.905-8.413 8.74-13.796 0.879-5.676-0.429-11.253-3.686-15.702-0.912-1.248-1.946-2.36-3.076-3.327 0.979 2.222 1.267 4.815 0.831 7.626-1.816 11.717-13.463 19.673-25.965 17.736-6.029-0.934-11.497-4.385-15.395-9.713-4.952-6.768-6.971-15.954-5.538-25.202 1.158-7.474 5.964-17.67 15.213-25.559 0 0-39.421 22.835-20.356 56.115C16.022 76.695 28.305 81.73 35.726 82.88z" fill="#000000" data-fill-palette-color="accent"></path><path d="M90.432 35.718c-5.738-10.955-17.822-16.45-25.194-17.879-8.554-1.659-17.141-0.125-23.557 4.208-4.931 3.331-8.217 8.108-9.254 13.456-1.094 5.64 0.004 11.261 3.092 15.83 0.863 1.282 1.854 2.431 2.946 3.441-0.894-2.257-1.084-4.859-0.542-7.652 2.257-11.64 14.196-19.151 26.615-16.744 5.99 1.161 11.324 4.816 15.019 10.289 4.693 6.949 6.363 16.204 4.583 25.392-1.44 7.423-6.626 17.431-16.167 24.966C67.973 91.025 108.228 69.694 90.432 35.718z" fill="#000000" data-fill-palette-color="accent"></path></svg></g></svg></g><g></g></svg></g></svg></g></svg></g><path d="M0 41.215L0 1 195.66 1 195.66 41.215 192.291 41.215 192.291 4.369 3.369 4.369 3.369 41.215 0 41.215M0 205.985L0 246.2 195.66 246.2 195.66 205.985 192.291 205.985 192.291 242.831 3.369 242.831 3.369 205.985 0 205.985" fill="#000000" stroke="transparent" data-fill-palette-color="tertiary"></path></svg></g><defs></defs></svg><rect width="195.65958661540648" height="247.2" fill="none" stroke="none" visibility="hidden"></rect></g></svg></g></svg>